<svg width="49.025635" height="49.000000" viewBox="0 0 49.0256 49" fill="none" xmlns="http://www.w3.org/2000/svg" xmlns:xlink="http://www.w3.org/1999/xlink">
	<desc>
			Created with Pixso.
	</desc>
	<defs>
		<clipPath id="clip3802_44">
			<rect id="flower 1" rx="-0.500000" width="48.025520" height="48.000000" transform="translate(0.500000 0.500000)" fill="white" fill-opacity="0"/>
		</clipPath>
	</defs>
	<rect id="flower 1" rx="-0.500000" width="48.025520" height="48.000000" transform="translate(0.500000 0.500000)" fill="#FFFFFF" fill-opacity="0"/>
	<g clip-path="url(#clip3802_44)">
		<path id="Vector" d="M36.76 15.31L36.76 7.65C36.76 6.81 36.08 6.12 35.23 6.12L33.7 6.12L33.7 1.53C33.7 0.68 33.01 0 32.17 0C30 0 26.68 -0.17 22.78 2.17C20.35 1.44 18.64 1.53 16.85 1.53C16 1.53 15.32 2.21 15.32 3.06L15.32 6.12L13.78 6.12C12.94 6.12 12.25 6.81 12.25 7.65L12.25 15.31C12.25 21.55 16.94 26.71 22.98 27.46L22.98 47.46C22.98 48.31 23.66 49 24.51 49C25.35 49 26.04 48.31 26.04 47.46L26.04 42.1L28.34 42.1C32.98 42.1 36.76 38.33 36.76 33.68L36.76 31.39C36.76 30.54 36.08 29.86 35.23 29.86L31.4 29.86C29.37 29.86 27.5 30.58 26.04 31.79L26.04 27.46C32.07 26.72 36.76 21.58 36.76 15.31ZM33.7 15.31C33.7 18.03 32.49 20.5 30.59 22.18C30.62 21.94 30.64 21.69 30.64 21.43C30.64 17.56 29.19 14.01 26.8 11.31C28.82 9.93 31.22 9.18 33.7 9.18L33.7 15.31ZM30.64 3.06L30.64 6.43C30.35 6.49 30.07 6.55 29.79 6.63C28.8 5.52 27.67 4.57 26.43 3.8C27.77 3.31 29.19 3.06 30.64 3.06ZM18.38 4.59C21.42 4.59 24.38 5.7 26.68 7.82C25.92 8.22 25.19 8.67 24.5 9.19C22.72 7.85 20.64 6.89 18.38 6.43L18.38 4.59ZM15.32 15.31L15.32 9.18C22.07 9.18 27.57 14.68 27.57 21.43C27.57 23.15 26.16 24.54 24.43 24.49C19.05 24.36 15.32 20.09 15.32 15.31ZM31.4 32.92L33.7 32.92L33.7 33.68C33.7 36.64 31.29 39.04 28.34 39.04L26.04 39.04L26.04 38.28C26.04 35.32 28.45 32.92 31.4 32.92Z" fill="#FFFFFF" fill-opacity="1.000000" fill-rule="nonzero"/>
	</g>
</svg>
