<svg width="24.000000" height="24.000000" viewBox="0 0 24 24" fill="none" xmlns="http://www.w3.org/2000/svg" xmlns:xlink="http://www.w3.org/1999/xlink">
	<desc>
			Created with Pixso.
	</desc>
	<defs/>
	<path id="google" d="M18.87 10.6L12.14 10.6C12.14 11.3 12.14 12.7 12.14 13.4L16.04 13.4C15.89 14.1 15.36 15.08 14.61 15.57C14.61 15.57 14.61 15.57 14.61 15.57C13.61 16.23 12.3 16.38 11.32 16.18C9.8 15.88 8.59 14.77 8.1 13.36C8.1 13.36 8.1 13.34 8.1 13.34C7.8 12.47 7.8 11.3 8.1 10.6L8.1 10.6C8.5 9.31 9.74 8.14 11.27 7.82C12.5 7.56 13.89 7.84 14.91 8.79C15.05 8.66 16.79 6.96 16.93 6.82C13.44 3.66 7.85 4.77 5.76 8.85L5.76 8.85C5.76 8.85 5.76 8.85 5.75 8.86C4.72 10.87 4.76 13.23 5.76 15.14C5.76 15.14 5.76 15.14 5.75 15.14C6.66 16.9 8.31 18.24 10.29 18.76C12.4 19.31 15.08 18.93 16.88 17.31C16.88 17.31 16.88 17.31 16.88 17.31C18.4 15.94 19.35 13.6 18.87 10.6Z" fill="#FFFFFF" fill-opacity="1.000000" fill-rule="evenodd"/>
</svg>
