<svg width="174.000000" height="65.749023" viewBox="0 0 174 65.749" fill="none" xmlns="http://www.w3.org/2000/svg" xmlns:xlink="http://www.w3.org/1999/xlink">
	<desc>
			Created with Pixso.
	</desc>
	<defs>
		<clipPath id="clip12_354">
			<rect id="flower 1" rx="-0.500000" width="50.000000" height="50.000000" transform="translate(0.500000 0.500000)" fill="white" fill-opacity="0"/>
		</clipPath>
	</defs>
	<rect id="flower 1" rx="-0.500000" width="50.000000" height="50.000000" transform="translate(0.500000 0.500000)" fill="#FFFFFF" fill-opacity="0"/>
	<g clip-path="url(#clip12_354)">
		<path id="Vector" d="M38.24 15.93L38.24 7.97C38.24 7.09 37.53 6.37 36.65 6.37L35.06 6.37L35.06 1.59C35.06 0.71 34.34 0 33.46 0C31.21 0 27.75 -0.17 23.7 2.25C21.17 1.5 19.39 1.59 17.53 1.59C16.65 1.59 15.93 2.3 15.93 3.19L15.93 6.37L14.34 6.37C13.46 6.37 12.75 7.09 12.75 7.97L12.75 15.93C12.75 22.42 17.62 27.8 23.9 28.58L23.9 49.4C23.9 50.28 24.61 51 25.5 51C26.38 51 27.09 50.28 27.09 49.4L27.09 43.82L29.48 43.82C34.31 43.82 38.24 39.89 38.24 35.06L38.24 32.67C38.24 31.79 37.53 31.07 36.65 31.07L32.67 31.07C30.55 31.07 28.61 31.83 27.09 33.08L27.09 28.58C33.36 27.81 38.24 22.46 38.24 15.93ZM35.06 15.93C35.06 18.77 33.8 21.33 31.82 23.09C31.85 22.83 31.87 22.57 31.87 22.31C31.87 18.27 30.36 14.58 27.88 11.77C29.98 10.34 32.48 9.56 35.06 9.56L35.06 15.93ZM31.87 3.19L31.87 6.69C31.58 6.75 31.28 6.82 30.99 6.9C29.96 5.74 28.78 4.76 27.49 3.96C28.88 3.45 30.36 3.19 31.87 3.19ZM19.12 4.78C22.29 4.78 25.36 5.93 27.75 8.14C26.96 8.55 26.21 9.03 25.49 9.56C23.64 8.17 21.47 7.17 19.12 6.69L19.12 4.78ZM15.93 15.93L15.93 9.56C22.96 9.56 28.68 15.28 28.68 22.31C28.68 24.09 27.21 25.54 25.41 25.5C19.81 25.36 15.93 20.91 15.93 15.93ZM32.67 34.26L35.06 34.26L35.06 35.06C35.06 38.13 32.55 40.64 29.48 40.64L27.09 40.64L27.09 39.84C27.09 36.76 29.59 34.26 32.67 34.26Z" fill="#FFFFFF" fill-opacity="1.000000" fill-rule="nonzero"/>
	</g>
	<path id="Explore Indonesia" d="M118.58 24.24Q119.5 22.32 119.5 19.83L119.5 19.04Q119.49 16.59 118.55 14.69Q117.88 13.33 116.82 12.42Q116.4 12.05 115.91 11.76Q115.56 11.54 115.18 11.37Q113.76 10.73 112.05 10.73Q110.32 10.73 108.88 11.38Q108.5 11.55 108.15 11.77Q107.59 12.11 107.11 12.54Q106.13 13.44 105.51 14.72Q104.6 16.63 104.6 19.14L104.6 20.1Q104.64 22.51 105.58 24.37Q106.24 25.66 107.26 26.54Q107.7 26.93 108.21 27.23Q108.45 27.37 108.69 27.49Q110.2 28.23 112.07 28.23Q113.8 28.23 115.23 27.57Q115.6 27.41 115.95 27.19Q116.45 26.89 116.89 26.5Q117.93 25.59 118.58 24.24ZM51.39 20.78L57.85 20.78L57.85 17.72L51.39 17.72L51.39 14.13L59.04 14.13L59.04 10.96L47.28 10.96L47.28 28L59.02 28L59.02 24.84L51.39 24.84L51.39 20.78ZM70.14 10.96L67.36 16.62L64.57 10.96L59.89 10.96L64.64 19.41L59.76 28L64.49 28L67.36 22.23L70.22 28L74.96 28L70.07 19.41L74.83 10.96L70.14 10.96ZM80.72 28L80.72 22.22L83.34 22.22Q86.45 22.22 88.23 20.72Q88.96 20.12 89.39 19.35Q90.02 18.22 90.02 16.74Q90.02 15.49 89.56 14.43Q89.41 14.07 89.19 13.73Q88.95 13.33 88.64 12.99Q87.92 12.18 86.87 11.68Q85.36 10.96 83.41 10.96L76.61 10.96L76.61 28L80.72 28ZM103.78 24.84L96.63 24.84L96.63 10.96L92.52 10.96L92.52 28L103.78 28L103.78 24.84ZM126.04 21.98L128.26 21.98L131.27 28L135.67 28L135.67 27.82L132.11 20.95Q133.64 20.23 134.36 19.06Q135.08 17.89 135.08 16.11Q135.08 14.49 134.35 13.36Q133.96 12.77 133.38 12.31Q131.67 10.96 128.64 10.96L121.93 10.96L121.93 28L126.04 28L126.04 21.98ZM141.99 20.78L148.44 20.78L148.44 17.72L141.99 17.72L141.99 14.13L149.64 14.13L149.64 10.96L137.88 10.96L137.88 28L149.61 28L149.61 24.84L141.99 24.84L141.99 20.78ZM114.48 15.26Q115.32 16.58 115.32 19.12L115.32 19.9Q115.31 22.38 114.47 23.7Q114.04 24.37 113.43 24.7Q112.84 25.02 112.07 25.02Q111.19 25.02 110.55 24.64Q109.99 24.3 109.6 23.68Q108.77 22.33 108.77 19.83L108.78 18.58Q108.91 15.34 110.46 14.36Q111.12 13.94 112.05 13.94Q112.85 13.94 113.47 14.29Q114.06 14.61 114.48 15.26ZM83.41 19.04L80.72 19.04L80.72 14.13L83.46 14.13Q84.26 14.14 84.81 14.51Q85.03 14.66 85.21 14.86Q85.28 14.94 85.35 15.02Q85.85 15.7 85.85 16.76Q85.85 17.68 85.41 18.25Q85.33 18.36 85.23 18.45L85.23 18.45Q84.6 19.04 83.41 19.04ZM128.64 18.81L126.04 18.81L126.04 14.13L128.64 14.13Q129.7 14.13 130.29 14.66Q130.34 14.71 130.39 14.76Q130.45 14.82 130.51 14.89Q130.99 15.5 130.99 16.48Q130.99 17.49 130.5 18.09Q130.45 18.14 130.4 18.2Q130.37 18.23 130.34 18.26Q129.75 18.81 128.64 18.81Z" fill="#DD2242" fill-opacity="1.000000" fill-rule="evenodd"/>
	<path id="Explore Indonesia" d="M101.27 46.24Q102.2 44.32 102.2 41.83L102.2 41.04Q102.19 38.59 101.24 36.69Q100.57 35.33 99.52 34.42Q99.09 34.05 98.61 33.76Q98.25 33.54 97.88 33.37Q96.46 32.73 94.75 32.73Q93.01 32.73 91.58 33.38Q91.2 33.55 90.84 33.77Q90.28 34.11 89.81 34.54Q88.83 35.44 88.21 36.72Q87.29 38.63 87.29 41.14L87.29 42.1Q87.34 44.51 88.28 46.37Q88.94 47.66 89.95 48.54Q90.4 48.93 90.91 49.23Q91.14 49.37 91.39 49.49Q92.9 50.23 94.77 50.23Q96.5 50.23 97.93 49.57Q98.3 49.41 98.65 49.19Q99.15 48.89 99.59 48.5Q100.62 47.59 101.27 46.24ZM144.02 44.48Q144.28 44.9 144.28 45.47Q144.28 45.94 144.07 46.29Q143.93 46.52 143.69 46.7Q143.1 47.14 142.08 47.14Q140.49 47.14 139.78 46.49Q139.76 46.47 139.73 46.45Q139.07 45.8 139.07 44.47L134.95 44.47Q134.95 45.75 135.44 46.8Q135.6 47.14 135.8 47.45Q135.81 47.46 135.81 47.47Q136.66 48.75 138.33 49.49Q140.01 50.23 142.08 50.23Q145.02 50.23 146.7 48.95Q147.42 48.41 147.84 47.68Q148.39 46.72 148.39 45.44Q148.39 44.41 148 43.53Q147.36 42.06 145.62 41.06Q144.49 40.4 142.72 39.83Q140.96 39.27 140.25 38.73Q139.66 38.29 139.57 37.75Q139.55 37.65 139.55 37.55Q139.55 37.24 139.66 36.97Q139.82 36.6 140.19 36.31Q140.83 35.83 141.93 35.83Q142.93 35.83 143.55 36.31Q143.6 36.36 143.65 36.4Q143.79 36.53 143.9 36.68Q144.29 37.2 144.29 38.01L148.39 38.01Q148.39 36.93 147.99 36.01Q147.82 35.62 147.58 35.25Q147.41 35 147.22 34.78Q146.47 33.9 145.31 33.38Q143.86 32.73 142.02 32.73Q140.14 32.73 138.63 33.33Q137.12 33.93 136.29 35.01Q135.96 35.45 135.76 35.94Q135.47 36.67 135.47 37.51Q135.47 38.3 135.73 39Q136.39 40.81 138.78 41.98Q139.8 42.48 141.4 43.02Q143 43.56 143.64 44.06Q143.87 44.25 144.02 44.48ZM47.56 50L51.66 50L51.66 32.96L47.56 32.96L47.56 50ZM64.97 50L69.05 50L69.05 32.96L64.96 32.96L64.96 43.56L58.93 32.96L54.83 32.96L54.83 50L58.93 50L58.93 39.4L64.97 50ZM71.97 32.96L71.97 50L77.57 50Q79.18 49.99 80.57 49.43Q81.09 49.22 81.58 48.94Q82.41 48.45 83.07 47.79Q83.83 47.03 84.36 46.03Q84.43 45.92 84.48 45.8Q85.35 44.03 85.35 41.84L85.35 41.06Q85.34 39.07 84.6 37.42Q84.47 37.14 84.33 36.87Q83.74 35.79 82.89 34.99Q82.27 34.41 81.51 33.98Q81.19 33.8 80.85 33.65Q79.31 32.96 77.45 32.96L71.97 32.96ZM114.77 50L118.86 50L118.86 32.96L114.76 32.96L114.76 43.56L108.74 32.96L104.63 32.96L104.63 50L108.74 50L108.74 39.4L114.77 50ZM125.88 42.78L132.33 42.78L132.33 39.72L125.88 39.72L125.88 36.13L133.53 36.13L133.53 32.96L121.77 32.96L121.77 50L133.5 50L133.5 46.84L125.88 46.84L125.88 42.78ZM151.09 50L155.18 50L155.18 32.96L151.09 32.96L151.09 50ZM162.61 46.81L168.24 46.81L169.23 50L173.64 50L167.35 32.96L163.49 32.96L157.24 50L161.63 50L162.61 46.81ZM97.17 37.26Q98.02 38.58 98.02 41.12L98.02 41.9Q98.01 44.38 97.17 45.7Q96.74 46.37 96.13 46.7Q95.53 47.02 94.77 47.02Q93.89 47.02 93.24 46.64Q92.68 46.3 92.3 45.68Q91.47 44.33 91.47 41.83L91.48 40.58Q91.6 37.34 93.15 36.36Q93.82 35.94 94.75 35.94Q95.55 35.94 96.16 36.29Q96.76 36.61 97.17 37.26ZM76.07 46.84L76.07 36.13L77.45 36.13Q78.68 36.13 79.51 36.71Q79.91 36.98 80.21 37.38Q81.16 38.63 81.16 41.1L81.16 41.84Q81.16 44.32 80.21 45.58Q79.88 46.03 79.43 46.32Q78.64 46.84 77.5 46.84L76.07 46.84ZM167.26 43.64L163.59 43.64L165.42 37.73L167.26 43.64Z" fill="#FFFFFF" fill-opacity="1.000000" fill-rule="evenodd"/>
</svg>
