<svg width="185.096191" height="52.000000" viewBox="0 0 185.096 52" fill="none" xmlns="http://www.w3.org/2000/svg" xmlns:xlink="http://www.w3.org/1999/xlink">
	
	<rect id="flower 1" rx="-0.500000" width="48.025497" height="44.500000" transform="translate(0.500000 0.500000)" fill="#FFFFFF" fill-opacity="0"/>
	<g >
		<path id="Vector" d="M36.76 14.22L36.76 7.11C36.76 6.32 36.08 5.68 35.23 5.68L33.7 5.68L33.7 1.42C33.7 0.63 33.01 0 32.17 0C30 0 26.68 -0.16 22.78 2.01C20.35 1.34 18.64 1.42 16.85 1.42C16 1.42 15.32 2.06 15.32 2.84L15.32 5.68L13.78 5.68C12.94 5.68 12.25 6.32 12.25 7.11L12.25 14.22C12.25 20.01 16.94 24.8 22.98 25.5L22.98 44.07C22.98 44.86 23.66 45.5 24.51 45.5C25.35 45.5 26.04 44.86 26.04 44.07L26.04 39.1L28.34 39.1C32.98 39.1 36.76 35.59 36.76 31.28L36.76 29.14C36.76 28.36 36.08 27.72 35.23 27.72L31.4 27.72C29.37 27.72 27.5 28.4 26.04 29.51L26.04 25.5C32.07 24.81 36.76 20.04 36.76 14.22ZM33.7 14.22C33.7 16.75 32.49 19.03 30.59 20.6C30.62 20.37 30.64 20.14 30.64 19.9C30.64 16.3 29.19 13.01 26.8 10.5C28.82 9.22 31.22 8.53 33.7 8.53L33.7 14.22ZM30.64 2.84L30.64 5.97C30.35 6.02 30.07 6.09 29.79 6.15C28.8 5.12 27.67 4.24 26.43 3.53C27.77 3.08 29.19 2.84 30.64 2.84ZM18.38 4.26C21.42 4.26 24.38 5.29 26.68 7.26C25.92 7.63 25.19 8.05 24.5 8.53C22.72 7.29 20.64 6.4 18.38 5.97L18.38 4.26ZM15.32 14.22L15.32 8.53C22.07 8.53 27.57 13.63 27.57 19.9C27.57 21.49 26.16 22.79 24.43 22.74C19.05 22.62 15.32 18.65 15.32 14.22ZM31.4 30.57L33.7 30.57L33.7 31.28C33.7 34.02 31.29 36.25 28.34 36.25L26.04 36.25L26.04 35.54C26.04 32.8 28.45 30.57 31.4 30.57Z" fill="#FFFFFF" fill-opacity="1.000000" fill-rule="nonzero"/>
	</g>
	<path id="Explore Indonesia" d="M115.56 25.38Q116.49 23.46 116.49 20.97L116.49 20.19Q116.47 17.73 115.53 15.83Q114.86 14.48 113.81 13.56Q113.38 13.2 112.89 12.9Q112.54 12.68 112.17 12.52Q110.75 11.87 109.03 11.87Q107.3 11.87 105.87 12.52Q105.49 12.69 105.13 12.91Q104.57 13.25 104.1 13.69Q103.12 14.58 102.5 15.86Q101.58 17.78 101.58 20.28L101.58 21.24Q101.63 23.65 102.57 25.51Q103.23 26.81 104.24 27.69Q104.69 28.07 105.2 28.37Q105.43 28.51 105.67 28.63Q107.18 29.37 109.06 29.37Q110.79 29.37 112.22 28.72Q112.59 28.55 112.94 28.34Q113.44 28.03 113.87 27.65Q114.91 26.73 115.56 25.38ZM48.37 21.92L54.83 21.92L54.83 18.87L48.37 18.87L48.37 15.27L56.03 15.27L56.03 12.1L44.27 12.1L44.27 29.14L56 29.14L56 25.98L48.37 25.98L48.37 21.92ZM67.13 12.1L64.34 17.77L61.56 12.1L56.88 12.1L61.63 20.55L56.75 29.14L61.48 29.14L64.34 23.37L67.21 29.14L71.95 29.14L67.06 20.55L71.82 12.1L67.13 12.1ZM77.7 29.14L77.7 23.36L80.32 23.36Q83.44 23.36 85.22 21.87Q85.94 21.26 86.37 20.5Q87 19.37 87 17.88Q87 16.63 86.55 15.57Q86.39 15.21 86.18 14.87Q85.93 14.47 85.63 14.13Q84.91 13.33 83.85 12.82Q82.35 12.1 80.39 12.1L73.6 12.1L73.6 29.14L77.7 29.14ZM100.76 25.98L93.61 25.98L93.61 12.1L89.51 12.1L89.51 29.14L100.76 29.14L100.76 25.98ZM123.03 23.12L125.25 23.12L128.25 29.14L132.65 29.14L132.65 28.96L129.1 22.09Q130.63 21.37 131.35 20.2Q132.07 19.03 132.07 17.25Q132.07 15.64 131.33 14.5Q130.95 13.91 130.36 13.45Q128.65 12.1 125.62 12.1L118.92 12.1L118.92 29.14L123.03 29.14L123.03 23.12ZM138.97 21.92L145.43 21.92L145.43 18.87L138.97 18.87L138.97 15.27L146.62 15.27L146.62 12.1L134.87 12.1L134.87 29.14L146.6 29.14L146.6 25.98L138.97 25.98L138.97 21.92ZM111.46 16.4Q112.31 17.72 112.31 20.26L112.31 21.04Q112.3 23.52 111.46 24.84Q111.03 25.52 110.42 25.85Q109.82 26.17 109.06 26.17Q108.18 26.17 107.53 25.78Q106.97 25.44 106.59 24.82Q105.76 23.48 105.76 20.97L105.77 19.72Q105.89 16.48 107.44 15.5Q108.11 15.09 109.03 15.09Q109.84 15.09 110.45 15.43Q111.05 15.76 111.46 16.4ZM80.39 20.19L77.7 20.19L77.7 15.27L80.44 15.27Q81.24 15.28 81.8 15.65Q82.02 15.8 82.2 16Q82.27 16.08 82.33 16.16Q82.84 16.85 82.84 17.91Q82.84 18.83 82.39 19.39Q82.31 19.5 82.21 19.59L82.21 19.59Q81.59 20.19 80.39 20.19ZM125.62 19.95L123.03 19.95L123.03 15.27L125.62 15.27Q126.69 15.27 127.28 15.8Q127.33 15.85 127.38 15.9Q127.44 15.96 127.49 16.03Q127.97 16.64 127.97 17.63Q127.97 18.63 127.48 19.23Q127.44 19.29 127.38 19.34Q127.35 19.37 127.32 19.4Q126.74 19.95 125.62 19.95ZM98.26 44.38Q99.18 42.46 99.18 39.97L99.18 39.19Q99.17 36.73 98.23 34.83Q97.56 33.48 96.51 32.56Q96.08 32.2 95.59 31.9Q95.24 31.68 94.87 31.52Q93.44 30.87 91.73 30.87Q90 30.87 88.56 31.52Q88.19 31.69 87.83 31.91Q87.27 32.25 86.79 32.69Q85.81 33.58 85.2 34.86Q84.28 36.78 84.28 39.28L84.28 40.24Q84.32 42.65 85.27 44.51Q85.92 45.81 86.94 46.69Q87.38 47.07 87.89 47.37Q88.13 47.51 88.37 47.63Q89.88 48.37 91.75 48.37Q93.48 48.37 94.92 47.72Q95.28 47.55 95.63 47.34Q96.14 47.03 96.57 46.65Q97.61 45.73 98.26 44.38ZM141.01 42.63Q141.26 43.04 141.26 43.61Q141.26 44.08 141.06 44.43Q140.91 44.67 140.67 44.84Q140.08 45.28 139.07 45.28Q137.47 45.28 136.77 44.63Q136.74 44.61 136.72 44.59Q136.06 43.94 136.06 42.62L131.94 42.62Q131.94 43.89 132.42 44.94Q132.58 45.28 132.79 45.59Q132.79 45.6 132.8 45.61Q133.65 46.89 135.32 47.63Q136.99 48.37 139.07 48.37Q142 48.37 143.69 47.1Q144.41 46.55 144.82 45.82Q145.37 44.86 145.37 43.59Q145.37 42.55 144.99 41.68Q144.35 40.2 142.61 39.2Q141.48 38.54 139.71 37.98Q137.94 37.41 137.24 36.88Q136.65 36.43 136.56 35.89Q136.54 35.79 136.54 35.69Q136.54 35.38 136.65 35.11Q136.8 34.74 137.17 34.46Q137.81 33.97 138.91 33.97Q139.92 33.97 140.54 34.46Q140.59 34.5 140.64 34.54Q140.78 34.67 140.89 34.82Q141.28 35.35 141.28 36.16L145.37 36.16Q145.37 35.07 144.98 34.16Q144.81 33.76 144.56 33.39Q144.4 33.14 144.21 32.92Q143.46 32.05 142.3 31.52Q140.84 30.87 139.01 30.87Q137.12 30.87 135.61 31.47Q134.1 32.07 133.28 33.16Q132.95 33.59 132.75 34.08Q132.46 34.81 132.46 35.65Q132.46 36.44 132.71 37.14Q133.38 38.95 135.77 40.12Q136.78 40.63 138.39 41.16Q139.99 41.7 140.63 42.21Q140.86 42.39 141.01 42.63ZM44.55 48.14L48.64 48.14L48.64 31.1L44.55 31.1L44.55 48.14ZM61.96 48.14L66.04 48.14L66.04 31.1L61.94 31.1L61.94 41.7L55.92 31.1L51.81 31.1L51.81 48.14L55.92 48.14L55.92 37.54L61.96 48.14ZM68.95 31.1L68.95 48.14L74.56 48.14Q76.17 48.13 77.56 47.57Q78.08 47.36 78.56 47.08Q79.4 46.59 80.06 45.93Q80.82 45.17 81.35 44.18Q81.41 44.06 81.47 43.94Q82.34 42.17 82.34 39.98L82.34 39.2Q82.33 37.21 81.58 35.56Q81.46 35.28 81.31 35.02Q80.73 33.94 79.87 33.14Q79.26 32.56 78.5 32.13Q78.18 31.94 77.84 31.79Q76.29 31.1 74.44 31.1L68.95 31.1ZM111.76 48.14L115.84 48.14L115.84 31.1L111.75 31.1L111.75 41.7L105.72 31.1L101.62 31.1L101.62 48.14L105.72 48.14L105.72 37.54L111.76 48.14ZM122.86 40.92L129.32 40.92L129.32 37.87L122.86 37.87L122.86 34.27L130.51 34.27L130.51 31.1L118.76 31.1L118.76 48.14L130.49 48.14L130.49 44.98L122.86 44.98L122.86 40.92ZM148.07 48.14L152.17 48.14L152.17 31.1L148.07 31.1L148.07 48.14ZM159.6 44.96L165.22 44.96L166.22 48.14L170.63 48.14L164.34 31.1L160.47 31.1L154.23 48.14L158.61 48.14L159.6 44.96ZM94.16 35.4Q95.01 36.72 95.01 39.26L95.01 40.04Q94.99 42.52 94.15 43.84Q93.72 44.52 93.11 44.85Q92.52 45.17 91.75 45.17Q90.87 45.17 90.23 44.78Q89.67 44.44 89.29 43.82Q88.45 42.48 88.45 39.97L88.47 38.72Q88.59 35.48 90.14 34.5Q90.8 34.09 91.73 34.09Q92.54 34.09 93.15 34.43Q93.74 34.76 94.16 35.4ZM73.06 44.98L73.06 34.27L74.44 34.27Q75.67 34.27 76.5 34.85Q76.9 35.12 77.2 35.53Q78.15 36.78 78.15 39.25L78.15 39.98Q78.15 42.46 77.2 43.72Q76.86 44.17 76.42 44.46Q75.62 44.98 74.49 44.98L73.06 44.98ZM164.24 41.79L160.58 41.79L162.4 35.88L164.24 41.79Z" fill="#FFFFFF" fill-opacity="1.000000" fill-rule="evenodd"/>
</svg>
