<svg width="32.012451" height="32.000000" viewBox="0 0 32.0125 32" fill="none" xmlns="http://www.w3.org/2000/svg" xmlns:xlink="http://www.w3.org/1999/xlink">
	<defs>
		<filter id="filter_3802_28_dd" x="0.000000" y="0.000000" width="32.012451" height="32.000000" filterUnits="userSpaceOnUse" color-interpolation-filters="sRGB">
			<feFlood flood-opacity="0" result="BackgroundImageFix"/>
			<feColorMatrix in="SourceAlpha" type="matrix" values="0 0 0 0 0 0 0 0 0 0 0 0 0 0 0 0 0 0 127 0" result="hardAlpha"/>
			<feOffset dx="0" dy="0"/>
			<feGaussianBlur stdDeviation="1.33333"/>
			<feComposite in2="hardAlpha" operator="out" k2="-1" k3="1"/>
			<feColorMatrix type="matrix" values="0 0 0 0 0 0 0 0 0 0 0 0 0 0 0 0 0 0 0.1 0"/>
			<feBlend mode="normal" in2="BackgroundImageFix" result="effect_dropShadow_1"/>
			<feBlend mode="normal" in="SourceGraphic" in2="effect_dropShadow_1" result="shape"/>
		</filter>
		<clipPath id="clip3802_29">
			<rect id="search" rx="-0.500000" width="23.000000" height="23.000000" transform="translate(4.500000 4.500000)" fill="white" fill-opacity="0"/>
		</clipPath>
		<clipPath id="clip3802_28">
			<rect id="Frame 3" rx="-0.500000" width="23.012501" height="23.000000" transform="translate(4.500000 4.500000)" fill="white" fill-opacity="0"/>
		</clipPath>
	</defs>
	<g filter="url(#filter_3802_28_dd)">
		<g clip-path="url(#clip3802_28)">
			<rect id="search" rx="-0.500000" width="23.000000" height="23.000000" transform="translate(4.500000 4.500000)" fill="#FFFFFF" fill-opacity="0"/>
			<g clip-path="url(#clip3802_29)">
				<path id="Vector" d="M19.5 18L18.7 18L18.43 17.73C19.41 16.59 20 15.11 20 13.5C20 9.91 17.09 7 13.5 7C9.91 7 7 9.91 7 13.5C7 17.09 9.91 20 13.5 20C15.11 20 16.59 19.41 17.73 18.43L18 18.7L18 19.5L23 24.49L24.49 23L19.5 18ZM13.5 18C11.01 18 9 15.99 9 13.5C9 11.01 11.01 9 13.5 9C15.99 9 18 11.01 18 13.5C18 15.99 15.99 18 13.5 18Z" fill="#FFFFFF" fill-opacity="1.000000" fill-rule="nonzero"/>
			</g>
		</g>
		<rect id="Frame 3" rx="-0.500000" width="23.012501" height="23.000000" transform="translate(4.500000 4.500000)" stroke="#FFFFFF" stroke-opacity="0" stroke-width="1.000000"/>
	</g>
</svg>
